<mxfile host="Electron" agent="Mozilla/5.0 (Windows NT 10.0; Win64; x64) AppleWebKit/537.36 (KHTML, like Gecko) draw.io/28.0.4 Chrome/138.0.7204.97 Electron/37.2.1 Safari/537.36" version="28.0.4">
  <diagram id="d2" name="Прием платежа">
    <mxGraphModel dx="3266" dy="1201" grid="1" gridSize="10" guides="1" tooltips="1" connect="1" arrows="1" fold="1" page="1" pageScale="1" pageWidth="1200" pageHeight="800" math="0" shadow="0">
      <root>
        <mxCell id="0" />
        <mxCell id="1" parent="0" />
        <mxCell id="pac" value="Пациент" style="shape=ellipse;whiteSpace=wrap;html=1;" parent="1" vertex="1">
          <mxGeometry x="-60" y="210" width="120" height="60" as="geometry" />
        </mxCell>
        <mxCell id="payproc" value="Касса принять платеж" style="shape=process;rounded=1;whiteSpace=wrap;html=1;" parent="1" vertex="1">
          <mxGeometry x="180" y="195" width="220" height="80" as="geometry" />
        </mxCell>
        <mxCell id="kkm" value="ККМ" style="shape=trapezoid;whiteSpace=wrap;html=1;" parent="1" vertex="1">
          <mxGeometry x="490" y="200" width="120" height="70" as="geometry" />
        </mxCell>
        <mxCell id="acc1c" value="1С Бухгалтерия файл" style="shape=cylinder;whiteSpace=wrap;html=1;boundedLbl=1;" parent="1" vertex="1">
          <mxGeometry x="760" y="180" width="220" height="110" as="geometry" />
        </mxCell>
        <mxCell id="exl" value="Excel платежи" style="shape=cylinder;whiteSpace=wrap;html=1;boundedLbl=1;" parent="1" vertex="1">
          <mxGeometry x="200" y="390" width="180" height="100" as="geometry" />
        </mxCell>
        <mxCell id="pe1" value="Оплата" style="endArrow=classic;html=1;" parent="1" source="pac" target="payproc" edge="1">
          <mxGeometry relative="1" as="geometry" />
        </mxCell>
        <mxCell id="pe2" value="Чек" style="endArrow=classic;html=1;" parent="1" source="payproc" target="kkm" edge="1">
          <mxGeometry relative="1" as="geometry" />
        </mxCell>
        <mxCell id="pe3" value="Данные чеков" style="endArrow=classic;html=1;" parent="1" source="kkm" target="acc1c" edge="1">
          <mxGeometry relative="1" as="geometry" />
        </mxCell>
        <mxCell id="pe4" value="Запись платежа" style="endArrow=classic;html=1;" parent="1" source="payproc" target="exl" edge="1">
          <mxGeometry relative="1" as="geometry" />
        </mxCell>
        <mxCell id="tag2" value="Тег финданные средний" style="shape=note;whiteSpace=wrap;html=1;fillColor=#fff2cc;strokeColor=#d6b656;" parent="1" vertex="1">
          <mxGeometry x="780" y="330" width="170" height="50" as="geometry" />
        </mxCell>
        <mxCell id="ctrl3" value="Шифрование TLS" style="shape=note;whiteSpace=wrap;html=1;fillColor=#dae8fc;strokeColor=#6c8ebf;" parent="1" vertex="1">
          <mxGeometry x="780" y="100" width="160" height="50" as="geometry" />
        </mxCell>
        <mxCell id="ctrl4" value="Журнал чеков" style="shape=note;whiteSpace=wrap;html=1;fillColor=#e1d5e7;strokeColor=#9673a6;" parent="1" vertex="1">
          <mxGeometry x="490" y="280" width="150" height="40" as="geometry" />
        </mxCell>
        <mxCell id="ctrl5" value="Сегментация сети" style="shape=note;whiteSpace=wrap;html=1;fillColor=#d5e8d4;strokeColor=#82b366;" parent="1" vertex="1">
          <mxGeometry x="1010" y="210" width="160" height="50" as="geometry" />
        </mxCell>
      </root>
    </mxGraphModel>
  </diagram>
</mxfile>
